<svg xmlns="http://www.w3.org/2000/svg" viewBox="0 0 240 240" role="img" aria-labelledby="title desc">
  <title id="title">Global Employee Health and Fitness Month logo</title>
  <desc id="desc">Circular GEHFM mark with a globe, leaf, and active figure.</desc>
  <rect width="240" height="240" rx="32" fill="#f6f9f7"/>
  <circle cx="120" cy="118" r="72" fill="#1f6fae" opacity=".16"/>
  <path d="M57 118c18-28 39-42 63-42s45 14 63 42c-18 28-39 42-63 42s-45-14-63-42Z" fill="#2f855a" opacity=".92"/>
  <circle cx="120" cy="118" r="20" fill="#fff"/>
  <path d="M120 62v112M69 118h102M82 88c18 10 56 10 76 0M82 148c18-10 56-10 76 0" stroke="#fff" stroke-width="8" stroke-linecap="round" opacity=".85"/>
  <path d="M123 58c22-4 41-19 51-39 9 30-11 58-51 39Z" fill="#f4a62a"/>
  <text x="120" y="218" text-anchor="middle" font-family="Arial, Helvetica, sans-serif" font-size="34" font-weight="800" fill="#173042">GEHFM</text>
</svg>
